<svg viewBox="0 0 1080 1080" xmlns="http://www.w3.org/2000/svg" xml:space="preserve" style="fill-rule:evenodd;clip-rule:evenodd;stroke-linejoin:round;stroke-miterlimit:2"><path style="fill:#19fb9b" transform="matrix(1.27446 0 0 1.08926 -126.969 -49.62)" d="M335.998 448.377h257.895v183.612H335.998z"/><path d="M777.588 478.333c-15.921-82.546-100.093-92.802-100.093-92.802H300.531c-12.443 0-13.99 16.125-13.99 16.125s-1.686 147.995-.453 238.88c3.381 48.985 53.272 53.995 53.272 53.995s170.301-.454 246.504-.99c50.224-8.613 55.272-51.853 54.756-75.457 89.651 4.859 152.891-57.209 136.968-139.751Zm-227.88 70.943c-25.667 29.36-82.625 80.344-82.625 80.344s-2.494 2.407-6.386.453c-1.566-1.157-2.228-1.813-2.228-1.813-9.125-8.9-69.381-61.613-83.1-79.911-14.604-19.506-21.442-54.546-1.874-74.964 19.593-20.39 61.906-21.916 89.88 8.246 0 0 32.24-36.011 71.442-19.47 39.219 16.584 37.74 60.854 14.891 87.115Zm127.167 9.661c-19.12 2.35-34.651.558-34.651.558V444.713h36.464s40.604 11.147 40.604 53.314c0 38.645-20.292 53.89-42.417 60.91Z" style="fill:#9945ff;fill-rule:nonzero" transform="translate(-3.23 -7.36) scale(1.01131)"/><g transform="translate(420.585 498.792) scale(.89109)"><clipPath id="a"><path d="M0 0h101v88H0z"/></clipPath><g clip-path="url(#a)"><path d="m100.48 69.382-16.673 17.42c-.363.378-.801.68-1.288.886a3.971 3.971 0 0 1-1.545.312H1.936a1.97 1.97 0 0 1-1.062-.309 1.903 1.903 0 0 1-.714-.825 1.842 1.842 0 0 1-.132-1.071c.064-.363.235-.699.492-.967l16.686-17.42a3.904 3.904 0 0 1 2.824-1.198h79.034c.378 0 .746.107 1.062.308.315.202.563.489.714.826.15.337.196.709.132 1.071a1.872 1.872 0 0 1-.492.967ZM83.807 34.303a3.883 3.883 0 0 0-1.288-.886 3.971 3.971 0 0 0-1.545-.312H1.936a1.97 1.97 0 0 0-1.062.309 1.903 1.903 0 0 0-.714.825c-.15.337-.196.709-.132 1.071s.235.698.492.967l16.686 17.42c.362.377.799.678 1.284.884.486.207 1.01.313 1.54.314h79.034a1.97 1.97 0 0 0 1.062-.309c.315-.201.563-.488.714-.825.15-.337.196-.709.132-1.071a1.872 1.872 0 0 0-.492-.967l-16.673-17.42ZM1.936 21.791h79.038c.532 0 1.057-.106 1.545-.313a3.883 3.883 0 0 0 1.288-.886l16.673-17.42c.257-.268.428-.604.492-.967a1.842 1.842 0 0 0-.132-1.071 1.903 1.903 0 0 0-.714-.825A1.97 1.97 0 0 0 99.064 0H20.03a3.967 3.967 0 0 0-1.54.314 3.886 3.886 0 0 0-1.284.884L.525 18.618a1.87 1.87 0 0 0-.492.966c-.065.362-.019.734.131 1.071.15.336.397.623.712.825.315.202.683.31 1.06.311Z" style="fill:#fff;fill-rule:nonzero"/></g></g></svg>
